HIERARCHY
ROOT Hips
{
	OFFSET 0.00000 0.00000 0.00000
	CHANNELS 6 Xposition Yposition Zposition Zrotation Yrotation Xrotation 
	JOINT LHipJoint
	{
		OFFSET 0 0 0
		CHANNELS 3 Zrotation Yrotation Xrotation
		JOINT LeftUpLeg
		{
			OFFSET 1.53794 -1.55850 0.93568
			CHANNELS 3 Zrotation Yrotation Xrotation
			JOINT LeftLeg
			{
				OFFSET 2.28545 -6.27922 0.00000
				CHANNELS 3 Zrotation Yrotation Xrotation
				JOINT LeftFoot
				{
					OFFSET 2.37329 -6.52057 0.00000
					CHANNELS 3 Zrotation Yrotation Xrotation
					JOINT LeftToeBase
					{
						OFFSET 0.14846 -0.40788 2.09160
						CHANNELS 3 Zrotation Yrotation Xrotation
						End Site
						{
							OFFSET 0.00000 -0.00000 1.07536
						}
					}
				}
			}
		}
	}
	JOINT RHipJoint
	{
		OFFSET 0 0 0
		CHANNELS 3 Zrotation Yrotation Xrotation
		JOINT RightUpLeg
		{
			OFFSET -1.78290 -1.55850 0.93568
			CHANNELS 3 Zrotation Yrotation Xrotation
			JOINT RightLeg
			{
				OFFSET -2.24144 -6.15831 0.00000
				CHANNELS 3 Zrotation Yrotation Xrotation
				JOINT RightFoot
				{
					OFFSET -2.35091 -6.45907 0.00000
					CHANNELS 3 Zrotation Yrotation Xrotation
					JOINT RightToeBase
					{
						OFFSET -0.14428 -0.39641 2.07944
						CHANNELS 3 Zrotation Yrotation Xrotation
						End Site
						{
							OFFSET -0.00000 -0.00000 1.06864
						}
					}
				}
			}
		}
	}
	JOINT LowerBack
	{
		OFFSET 0 0 0
		CHANNELS 3 Zrotation Yrotation Xrotation
		JOINT Spine
		{
			OFFSET -0.08841 2.11430 -0.15818
			CHANNELS 3 Zrotation Yrotation Xrotation
			JOINT Spine1
			{
				OFFSET -0.00033 2.12605 -0.08097
				CHANNELS 3 Zrotation Yrotation Xrotation
				JOINT Neck
				{
					OFFSET 0 0 0
					CHANNELS 3 Zrotation Yrotation Xrotation
					JOINT Neck1
					{
						OFFSET 0.04431 1.59447 0.43193
						CHANNELS 3 Zrotation Yrotation Xrotation
						JOINT Head
						{
							OFFSET 0.00455 1.62017 -0.58852
							CHANNELS 3 Zrotation Yrotation Xrotation
							End Site
							{
								OFFSET -0.00920 1.72955 -0.25850
							}
						}
					}
				}
				JOINT LeftShoulder
				{
					OFFSET 0 0 0
					CHANNELS 3 Zrotation Yrotation Xrotation
					JOINT LeftArm
					{
						OFFSET 2.86490 1.49927 -0.33774
						CHANNELS 3 Zrotation Yrotation Xrotation
						JOINT LeftForeArm
						{
							OFFSET 4.87408 -0.00000 0.00000
							CHANNELS 3 Zrotation Yrotation Xrotation
							JOINT LeftHand
							{
								OFFSET 2.76729 -0.00000 0.00000
								CHANNELS 3 Zrotation Yrotation Xrotation
								JOINT LeftFingerBase
								{
									OFFSET 0 0 0
									CHANNELS 3 Zrotation Yrotation Xrotation
									JOINT LeftHandIndex1
									{
										OFFSET 0.98922 -0.00000 0.00000
										CHANNELS 3 Zrotation Yrotation Xrotation
										End Site
										{
											OFFSET 0.79753 -0.00000 0.00000
										}
									}
								}
								JOINT LThumb
								{
									OFFSET 0 0 0
									CHANNELS 3 Zrotation Yrotation Xrotation
									End Site
									{
										OFFSET 0.80972 -0.00000 0.80972
									}
								}
							}
						}
					}
				}
				JOINT RightShoulder
				{
					OFFSET 0 0 0
					CHANNELS 3 Zrotation Yrotation Xrotation
					JOINT RightArm
					{
						OFFSET -2.94414 1.45463 -0.25291
						CHANNELS 3 Zrotation Yrotation Xrotation
						JOINT RightForeArm
						{
							OFFSET -4.71404 -0.00000 0.00000
							CHANNELS 3 Zrotation Yrotation Xrotation
							JOINT RightHand
							{
								OFFSET -2.83468 -0.00000 0.00000
								CHANNELS 3 Zrotation Yrotation Xrotation
								JOINT RightFingerBase
								{
									OFFSET 0 0 0
									CHANNELS 3 Zrotation Yrotation Xrotation
									JOINT RightHandIndex1
									{
										OFFSET -0.86820 -0.00000 0.00000
										CHANNELS 3 Zrotation Yrotation Xrotation
										End Site
										{
											OFFSET -0.69996 -0.00000 0.00000
										}
									}
								}
								JOINT RThumb
								{
									OFFSET 0 0 0
									CHANNELS 3 Zrotation Yrotation Xrotation
									End Site
									{
										OFFSET -0.71065 -0.00000 0.71065
									}
								}
							}
						}
					}
				}
			}
		}
	}
}
MOTION
Frames: 6
Frame Time: .0083333
-0.3481 15.817 28.1014 0 0 0 0 0 0 -21 0 0 0 0 0 0 0 0 0 0 0 0 0 0 21 0 0 0 0 0 0 0 0 0 0 0 0 0 0 0 0 0 0 0 0 0 0 -16 0 0 21 0 0 11 0 0 0 -8 0 0 0 0 0 0 0 0 0 0 0 0 0 0 0 0 0 0 0 0 8 0 0 0 0 0 0 0 0 0 0 0 0 0 0 0 0 0
-0.3481 15.8170 28.1014 178.3280 0.4066 -172.6710 0.0000 0.0000 0.0000 -23.9116 -11.7038 -12.6988 2.2686 9.4044 27.0687 -1.1585 19.1397 -11.9481 0.0011 -0.2162 -0.5940 0.0000 0.0000 0.0000 21.6170 9.0287 -11.3157 -2.2492 -9.3669 26.9499 0.4404 -16.2452 -18.0477 -1.4298 7.5609 -21.3880 -5.3935 -0.0235 -6.3174 0.1204 0.3895 -0.0843 3.1921 0.1168 3.4249 1.4902 0.6902 -36.9521 0.7326 -2.0016 38.5729 -0.6480 -0.8805 22.1650 -0.0000 0.0000 0.0000 -90.9924 -1.5052 8.5361 9.8274 -16.4691 -1.4256 -0.0000 -0.0000 52.3112 -3.1706 6.2894 -0.3477 -7.1250 0.0000 -0.0000 -24.4959 35.2642 6.3488 -0.0000 0.0000 0.0000 91.4325 -4.6187 -1.9800 -11.9710 19.7611 -2.0925 0.0000 0.0000 39.1222 -1.0622 -7.5451 0.1395 7.1250 -0.0000 -0.0000 21.5233 -36.7023 4.6616
-0.3478 15.8171 28.0979 178.3290 0.4110 -172.6720 0.0000 0.0000 0.0000 -23.9138 -11.6903 -12.6803 2.2668 9.4011 27.0581 -1.1581 19.1392 -11.9608 0.0012 -0.2208 -0.6067 0.0000 0.0000 0.0000 21.6198 9.0178 -11.2992 -2.2500 -9.3685 26.9550 0.4350 -16.2115 -18.0589 -1.4084 7.5063 -21.2243 -5.3620 -0.0170 -6.3045 0.0959 0.3961 -0.0980 3.1493 0.1220 3.4030 1.4383 0.6496 -36.7832 0.7770 -2.0817 38.6204 -0.6413 -0.9203 22.1544 -0.0000 0.0000 0.0000 -91.0037 -1.5364 8.7491 9.8576 -16.5165 -1.4342 -0.0000 -0.0000 51.9943 -3.2720 6.4406 -0.3674 -7.1250 0.0000 -0.0000 -24.6181 35.3953 6.2994 -0.0000 0.0000 0.0000 91.4899 -4.6335 -1.9946 -11.9721 19.7627 -2.0928 0.0000 0.0000 39.0816 -1.0441 -7.6107 0.1383 7.1250 -0.0000 -0.0000 21.5559 -36.7620 4.6358
-0.3475 15.8174 28.0950 178.3090 0.4005 -172.6630 0.0000 0.0000 0.0000 -23.9291 -11.5765 -12.7247 2.2657 9.3989 27.0514 -1.1396 19.0164 -11.9824 0.0012 -0.2231 -0.6128 0.0000 0.0000 0.0000 21.6001 8.9974 -11.3008 -2.2502 -9.3689 26.9564 0.4341 -16.2190 -18.0850 -1.3787 7.4302 -20.9962 -5.3533 -0.0200 -6.2540 0.0663 0.3896 -0.1262 3.1125 0.1217 3.3463 1.5025 0.6606 -36.6288 0.7547 -2.1061 38.6087 -0.6719 -0.9280 22.1029 -0.0000 0.0000 0.0000 -90.9899 -1.5437 8.6552 9.8530 -16.5093 -1.4329 -0.0000 -0.0000 52.3265 -3.1716 6.1965 -0.3427 -7.1250 0.0000 -0.0000 -24.4699 35.1794 6.3964 -0.0000 0.0000 0.0000 91.5336 -4.6593 -2.0107 -11.9590 19.7432 -2.0884 0.0000 0.0000 39.1435 -1.0800 -7.6442 0.1437 7.1250 -0.0000 -0.0000 21.5364 -36.7957 4.6121
-0.3485 15.8181 28.0925 178.3150 0.4451 -172.6120 0.0000 0.0000 0.0000 -23.9253 -11.6202 -12.7543 2.2648 9.3971 27.0455 -1.1509 19.0896 -11.9583 0.0013 -0.2285 -0.6277 0.0000 0.0000 0.0000 21.5857 9.0031 -11.3664 -2.2506 -9.3697 26.9587 0.4287 -16.1628 -18.0537 -1.3842 7.4442 -21.0383 -5.3276 -0.0001 -6.3088 0.0581 0.4182 -0.1481 3.0924 0.1371 3.3519 1.4595 0.6475 -36.6714 0.7881 -2.1288 38.6694 -0.6553 -0.9394 22.1591 -0.0000 0.0000 0.0000 -90.9985 -1.5318 8.9767 9.8931 -16.5721 -1.4443 -0.0000 -0.0000 52.0409 -3.1293 6.2149 -0.3391 -7.1250 0.0000 -0.0000 -24.4427 35.1990 6.3752 -0.0000 0.0000 0.0000 91.5542 -4.7006 -1.9818 -11.9788 19.7728 -2.0951 0.0000 0.0000 39.0116 -1.0937 -7.6377 0.1454 7.1250 -0.0000 -0.0000 21.5236 -36.7905 4.6120
-0.3496 15.8188 28.0900 178.3180 0.4873 -172.5700 0.0000 0.0000 0.0000 -23.9247 -11.6246 -12.7901 2.2642 9.3959 27.0417 -1.1557 19.1212 -11.9522 0.0012 -0.2275 -0.6252 0.0000 0.0000 0.0000 21.5689 8.9900 -11.4243 -2.2507 -9.3698 26.9590 0.4228 -16.1038 -18.0244 -1.3805 7.4349 -21.0103 -5.2909 0.0190 -6.3232 0.0359 0.4430 -0.1783 3.0510 0.1520 3.3266 1.4733 0.6487 -36.6368 0.7982 -2.1566 38.7109 -0.6621 -0.9492 22.1795 0.0000 -0.0000 0.0000 -90.9909 -1.5198 9.2172 9.9276 -16.6263 -1.4542 -0.0000 -0.0000 51.8482 -3.1026 6.2144 -0.3362 -7.1250 0.0000 -0.0000 -24.4218 35.2003 6.3680 0.0000 -0.0000 0.0000 91.5948 -4.7337 -1.9804 -11.9828 19.7788 -2.0965 0.0000 0.0000 38.9571 -1.1148 -7.6516 0.1485 7.1250 -0.0000 -0.0000 21.5105 -36.8049 4.6007
